<?xml version="1.0" standalone="no"?>
<svg xmlns:xlink="http://www.w3.org/1999/xlink" id="wave" style="transform:rotate(180deg); transition: 0.3s" viewBox="0 0 1440 100" version="1.1" xmlns="http://www.w3.org/2000/svg"><defs><linearGradient id="sw-gradient-0" x1="0" x2="0" y1="1" y2="0"><stop stop-color="rgba(255, 251, 226, 1)" offset="0%"/><stop stop-color="rgba(255, 251, 226, 1)" offset="100%"/></linearGradient></defs><path style="transform:translate(0, 0px); opacity:1" fill="url(#sw-gradient-0)" d="M0,80L80,81.7C160,83,320,87,480,73.3C640,60,800,30,960,21.7C1120,13,1280,27,1440,31.7C1600,37,1760,33,1920,31.7C2080,30,2240,30,2400,35C2560,40,2720,50,2880,48.3C3040,47,3200,33,3360,25C3520,17,3680,13,3840,25C4000,37,4160,63,4320,68.3C4480,73,4640,57,4800,50C4960,43,5120,47,5280,50C5440,53,5600,57,5760,51.7C5920,47,6080,33,6240,25C6400,17,6560,13,6720,16.7C6880,20,7040,30,7200,40C7360,50,7520,60,7680,56.7C7840,53,8000,37,8160,40C8320,43,8480,67,8640,66.7C8800,67,8960,43,9120,35C9280,27,9440,33,9600,35C9760,37,9920,33,10080,36.7C10240,40,10400,50,10560,51.7C10720,53,10880,47,11040,40C11200,33,11360,27,11440,23.3L11520,20L11520,100L11440,100C11360,100,11200,100,11040,100C10880,100,10720,100,10560,100C10400,100,10240,100,10080,100C9920,100,9760,100,9600,100C9440,100,9280,100,9120,100C8960,100,8800,100,8640,100C8480,100,8320,100,8160,100C8000,100,7840,100,7680,100C7520,100,7360,100,7200,100C7040,100,6880,100,6720,100C6560,100,6400,100,6240,100C6080,100,5920,100,5760,100C5600,100,5440,100,5280,100C5120,100,4960,100,4800,100C4640,100,4480,100,4320,100C4160,100,4000,100,3840,100C3680,100,3520,100,3360,100C3200,100,3040,100,2880,100C2720,100,2560,100,2400,100C2240,100,2080,100,1920,100C1760,100,1600,100,1440,100C1280,100,1120,100,960,100C800,100,640,100,480,100C320,100,160,100,80,100L0,100Z"/></svg>